<svg xmlns="http://www.w3.org/2000/svg" width="26" height="26" viewBox="0 0 26 26" fill="none">
    <path d="M13 0C11.4676 0 9.99804 0.608728 8.91449 1.69227C7.83095 2.77582 7.22222 4.24542 7.22222 5.77778C7.22222 7.31014 7.83095 8.77974 8.91449 9.86328C9.99804 10.9468 11.4676 11.5556 13 11.5556C14.5324 11.5556 16.002 10.9468 17.0855 9.86328C18.1691 8.77974 18.7778 7.31014 18.7778 5.77778C18.7778 4.24542 18.1691 2.77582 17.0855 1.69227C16.002 0.608728 14.5324 0 13 0ZM13 15.8889C8.66089 15.8889 0 18.0671 0 22.3889V24.5556C0 25.3529 0.647111 26 1.44444 26H24.5556C25.3529 26 26 25.3529 26 24.5556V22.3889C26 18.0671 17.3391 15.8889 13 15.8889Z" fill="white"/>
</svg>