<svg xmlns="http://www.w3.org/2000/svg" width="104" height="104" viewBox="0 0 104 104" fill="none">
    <path d="M39 64.9994H65M91 34.666H13M69.3333 8.66602V21.666M34.6667 8.66602V21.666M33.8 95.3327H70.2C77.4807 95.3327 81.121 95.3327 83.9019 93.9158C86.348 92.6694 88.3367 90.6807 89.5831 88.2346C91 85.4537 91 81.8134 91 74.5327V38.1327C91 30.852 91 27.2117 89.5831 24.4308C88.3367 21.9847 86.348 19.996 83.9019 18.7496C81.121 17.3327 77.4807 17.3327 70.2 17.3327H33.8C26.5193 17.3327 22.879 17.3327 20.0981 18.7496C17.652 19.996 15.6633 21.9847 14.4169 24.4308C13 27.2117 13 30.852 13 38.1327V74.5327C13 81.8134 13 85.4537 14.4169 88.2346C15.6633 90.6807 17.652 92.6694 20.0981 93.9158C22.879 95.3327 26.5193 95.3327 33.8 95.3327Z" stroke="white" stroke-width="8.66667" stroke-linecap="round" stroke-linejoin="round"/>
</svg>