<svg xmlns="http://www.w3.org/2000/svg" width="104" height="104" viewBox="0 0 104 104" fill="none">
    <path d="M77.9994 8.66602L95.3327 25.9993M8.66602 95.3327L14.1971 75.0521C14.5579 73.729 14.7384 73.0674 15.0154 72.4505C15.2613 71.9027 15.5635 71.382 15.9171 70.8967C16.3153 70.3501 16.8002 69.8652 17.7699 68.8954L62.548 24.1173C63.4061 23.2593 63.8351 22.8303 64.3298 22.6695C64.765 22.5281 65.2337 22.5281 65.6689 22.6695C66.1636 22.8303 66.5926 23.2593 67.4507 24.1173L79.8814 36.548C80.7394 37.4061 81.1684 37.8351 81.3292 38.3298C81.4706 38.765 81.4706 39.2337 81.3292 39.6689C81.1684 40.1636 80.7394 40.5926 79.8814 41.4507L35.1033 86.2288C34.1335 87.1985 33.6486 87.6834 33.102 88.0816C32.6167 88.4352 32.096 88.7374 31.5482 88.9834C30.9313 89.2603 30.2698 89.4408 28.9466 89.8016L8.66602 95.3327Z" stroke="#4480F3" stroke-width="8.66667" stroke-linecap="round" stroke-linejoin="round"/>
</svg>