<svg width="700" height="700" viewBox="0 0 700 700" fill="none" xmlns="http://www.w3.org/2000/svg">
<ellipse cx="223" cy="630.531" rx="110" ry="34.5" fill="#006FD6" fill-opacity="0.2" style="mix-blend-mode:multiply"/>
<path d="M273.782 425.548C268.676 410.286 254.225 394.749 230.565 378.94C221.538 373.29 211.509 368.916 200.477 365.864C189.627 362.811 177.592 360.989 164.417 360.305C153.841 359.758 141.623 359.941 127.719 360.897C125.166 361.08 123.16 361.399 121.656 361.809C119.559 362.447 117.918 363.449 116.778 364.861C115.775 366.091 115.228 367.595 115.046 369.372C114.909 370.966 115.137 372.607 115.73 374.292C116.185 375.705 116.96 377.163 117.963 378.666C118.602 379.623 119.605 380.944 120.972 382.63L136.198 401.766C137.156 402.95 137.84 403.907 138.25 404.682C138.888 405.821 139.253 406.914 139.344 407.962C139.39 408.873 139.207 409.921 138.797 411.014C138.569 411.652 138.159 412.609 137.52 413.885C132.597 423.817 128.676 435.435 125.759 448.83C123.844 457.76 121.93 470.016 120.06 485.552C118.784 496.122 118.1 504.414 117.918 510.383C117.69 519.586 118.374 527.787 120.015 535.031C123.024 548.472 129.588 560.545 139.618 571.252C144.222 576.264 149.328 580.547 154.798 584.192C155.847 584.875 156.895 585.467 157.989 586.06C172.258 593.805 187.029 597.951 202.209 598.543C201.434 604.876 201.07 610.526 201.115 615.401C201.252 628.295 204.352 637.862 210.461 644.195C213.469 647.293 217.116 649.526 221.402 650.847C225.687 652.168 229.927 652.442 234.166 651.576C238.406 650.711 242.235 648.843 245.654 645.927C249.073 643.011 251.581 639.548 253.131 635.493C256.504 637.498 260.242 638.865 264.345 639.594C268.266 640.277 272.277 640.368 276.38 639.821C283.948 638.819 291.288 635.812 298.49 630.892C303.049 627.748 306.423 624.467 308.611 621.005C309.933 618.909 310.89 616.722 311.392 614.444C311.939 612.029 312.03 609.66 311.574 607.382C317.865 604.785 322.971 600.411 326.983 594.352C330.903 588.338 332.955 581.914 333.091 574.988C333.228 568.2 331.587 561.684 328.122 555.352C324.749 549.155 320.144 544.144 314.355 540.316C308.702 536.58 302.365 534.166 295.299 533.163C291.607 532.617 287.96 532.525 284.313 532.753C284.905 526.375 285.042 519.495 284.677 512.16C282.535 469.697 278.933 440.811 273.782 425.548ZM146.501 386.229C146.41 384.999 146.501 383.86 146.729 382.812C147.048 381.445 147.641 380.215 148.598 379.076C149.51 377.983 150.65 377.117 151.926 376.525C153.203 375.933 154.57 375.659 156.029 375.659C157.488 375.659 158.855 375.933 160.132 376.525C161.272 377.026 162.32 377.755 163.186 378.621C164.098 379.532 164.782 380.534 165.238 381.719C166.013 383.723 166.013 386.002 165.283 388.553C164.782 390.284 164.052 391.742 163.05 392.881C162.047 393.975 160.816 394.795 159.266 395.342C157.807 395.843 156.303 395.979 154.707 395.797C152.884 395.615 151.334 395.023 150.103 394.02C149.009 393.2 148.142 392.016 147.55 390.603C146.957 389.236 146.592 387.824 146.501 386.229ZM182.971 455.619C183.61 454.616 184.293 453.842 185.023 453.204C185.889 452.475 186.846 452.019 187.895 451.792C189.034 451.564 190.037 451.7 190.949 452.156C191.861 452.612 192.545 453.386 193.046 454.434C193.502 455.391 193.684 456.439 193.684 457.578C193.639 458.535 193.456 459.582 193.092 460.767C192.955 461.223 192.59 462.271 191.998 463.774C188.989 471.838 187.211 480.404 186.664 489.562C186.162 498.218 186.801 507.011 188.533 515.896C189.354 520.224 190.402 524.006 191.679 527.332C193.183 531.295 195.006 534.758 197.195 537.674C199.702 540.954 202.62 543.551 206.039 545.465C209.731 547.515 213.469 548.472 217.253 548.381C217.983 548.381 219.122 548.335 220.627 548.244C221.903 548.244 222.997 548.426 223.863 548.791C225.231 549.383 226.234 550.431 226.781 551.98C227.374 553.529 227.328 554.941 226.644 556.308C225.915 557.766 224.638 558.86 222.769 559.589C221.219 560.181 219.441 560.454 217.39 560.454C210.506 560.363 203.896 558.131 197.605 553.711C191.724 549.565 186.983 544.189 183.473 537.628C180.327 531.796 178.048 525.099 176.68 517.49C175.586 511.249 175.039 504.095 175.039 496.031C175.039 488.833 175.449 482.454 176.316 476.85C177.364 470.016 179.096 463.911 181.513 458.443C182.06 457.304 182.561 456.348 182.971 455.619Z" fill="#FFC144"/>
<path d="M185.023 453.202C184.293 453.839 183.61 454.614 182.971 455.616C182.515 456.345 182.06 457.302 181.513 458.487C179.096 463.908 177.41 470.059 176.316 476.893C175.449 482.497 175.039 488.921 175.039 496.074C175.039 504.139 175.586 511.292 176.68 517.534C178.048 525.142 180.327 531.84 183.473 537.672C187.029 544.232 191.724 549.609 197.605 553.755C203.896 558.174 210.506 560.406 217.39 560.498C219.441 560.498 221.219 560.224 222.769 559.632C224.638 558.903 225.915 557.809 226.644 556.352C227.282 554.985 227.328 553.572 226.781 552.023C226.188 550.474 225.231 549.426 223.863 548.834C222.997 548.469 221.903 548.287 220.627 548.287C219.122 548.378 218.028 548.424 217.253 548.424C213.469 548.515 209.731 547.558 206.039 545.508C202.62 543.594 199.656 540.998 197.195 537.717C195.006 534.801 193.137 531.339 191.679 527.375C190.448 524.094 189.399 520.267 188.533 515.939C186.755 507.009 186.117 498.261 186.664 489.605C187.211 480.493 188.989 471.882 191.998 463.817C192.59 462.268 192.955 461.266 193.092 460.81C193.456 459.626 193.639 458.578 193.684 457.621C193.73 456.482 193.502 455.434 193.046 454.477C192.545 453.429 191.861 452.655 190.949 452.199C190.037 451.744 189.034 451.607 187.895 451.835C186.846 452.063 185.889 452.518 185.023 453.202Z" fill="white"/>
<path d="M146.684 382.765C146.456 383.813 146.41 384.952 146.456 386.182C146.547 387.777 146.912 389.189 147.459 390.51C148.097 391.968 148.963 393.107 150.011 393.927C151.242 394.884 152.792 395.477 154.616 395.704C156.166 395.887 157.716 395.704 159.175 395.249C160.725 394.748 161.955 393.927 162.958 392.788C163.961 391.649 164.691 390.237 165.192 388.46C165.922 385.909 165.876 383.631 165.147 381.626C164.691 380.487 164.007 379.439 163.095 378.528C162.229 377.662 161.18 376.933 160.041 376.432C158.764 375.84 157.397 375.566 155.938 375.566C154.479 375.566 153.111 375.84 151.835 376.432C150.559 377.024 149.419 377.89 148.507 378.983C147.641 380.168 147.003 381.398 146.684 382.765Z" fill="black"/>
</svg>
