<svg width="700" height="700" viewBox="0 0 700 700" fill="none" xmlns="http://www.w3.org/2000/svg">
<ellipse cx="203.701" cy="635.02" rx="161.5" ry="45" fill="#006FD6" fill-opacity="0.2" style="mix-blend-mode:multiply"/>
<path d="M342.929 581.508C341.964 580.589 341.004 579.625 339.993 578.705C326.697 565.57 310.595 557.445 291.646 554.285C301.803 570.657 306.391 588.875 305.277 608.892C304.963 615.111 304.239 621.326 303.199 627.491C322.83 619.077 335.873 604.413 342.329 583.5C342.567 582.912 342.773 582.188 342.929 581.508Z" fill="#513A24"/>
<path d="M291.716 554.336C282.732 553.148 273.847 553.823 264.969 556.36C244.071 562.262 229.134 575.224 220.163 595.201C226.503 614.21 239.547 626.116 259.346 630.875C273.919 634.35 288.558 633.239 303.262 627.586C304.347 621.421 305.025 615.206 305.339 608.988C306.457 588.925 301.87 570.707 291.716 554.336Z" fill="#E36119"/>
<path d="M237.562 489.325C236.943 488.756 236.323 488.239 235.652 487.721C229.869 482.96 223.569 479.286 216.753 476.595C209.679 473.853 202.553 472.455 195.324 472.352C191.142 472.3 187.011 472.714 182.983 473.594C181.951 473.801 180.918 474.111 179.988 474.422C175.651 476.492 171.417 478.665 167.234 480.89C154.016 487.98 143.74 498.019 136.459 511.008C129.489 523.427 125.409 536.779 124.222 551.113C123.292 562.032 124.377 572.692 127.526 583.197L118.077 590.752C115.65 592.511 113.068 594.064 110.383 595.513C105.426 598.1 102.225 602.033 100.831 607.26C96.3383 623.716 102.122 634.841 118.232 640.637C122.208 641.776 126.442 642.241 130.883 641.983C136.046 641.672 141.055 640.534 146.012 638.412C153.964 635.048 161.348 629.563 168.267 622.008C169.042 622.267 169.868 622.474 170.642 622.681C176.116 624.233 181.847 625.113 187.837 625.372C192.897 625.579 197.854 625.32 202.76 624.595C203.173 625.579 203.638 626.613 204.154 627.752C205.29 630.184 206.323 632.151 207.149 633.703C208.337 635.825 209.524 637.688 210.712 639.24C214.068 643.587 218.302 646.899 223.414 649.176C228.578 651.504 233.845 652.384 239.215 651.867C240.712 651.711 242.158 651.453 243.604 651.09C247.838 650.004 251.659 648.089 255.067 645.295C258.527 642.448 261.16 639.033 263.019 634.945C264.31 632.047 264.775 629.097 264.516 625.993C262.296 613.987 258.682 602.344 253.725 591.062C256.616 580.609 258.785 569.483 260.282 557.685C261.78 545.886 261.057 533.932 258.062 521.927C255.067 509.869 248.251 499.054 237.562 489.325Z" fill="#FA762D"/>
<path d="M106.193 515.812C103.38 517.444 101.023 519.161 99.1261 520.923C95.9355 523.871 93.4123 527.347 91.5904 531.44C89.8103 535.537 88.9045 539.76 88.9148 544.113C88.9246 547.579 89.5098 550.762 90.6743 553.62C91.741 556.173 93.2537 558.473 95.296 560.527C97.2585 562.532 99.5116 564.143 102.055 565.358C104.473 566.562 107.14 567.367 110.01 567.811C112.713 568.238 115.493 568.294 118.35 567.976C120.226 567.775 122.285 567.423 124.489 566.874C126.13 566.482 128.125 565.913 130.474 565.166C134.605 563.872 138.056 562.639 140.783 561.464C144.437 559.87 147.642 558.107 150.319 556.124C152.813 554.293 155.263 552.034 157.624 549.387C159.602 547.211 161.624 544.574 163.773 541.484C165.532 538.948 166.783 536.871 167.573 535.214C168.528 533.151 169.363 530.569 170.074 527.51C171.226 522.466 171.509 518.141 170.88 514.531C170.5 512.298 169.766 510.242 168.72 508.367C167.56 506.354 166.105 504.778 164.36 503.597C162.338 502.22 159.558 501.278 155.981 500.724C151.986 500.13 148.031 500.004 144.029 500.381C139.984 500.754 136.102 501.65 132.384 503.026C130.374 503.763 127.421 505.086 123.565 507.04L114.043 511.789C110.598 513.403 107.98 514.758 106.193 515.812Z" fill="#FA762D"/>
<path d="M276.635 532.087C279.091 534.223 281.084 536.358 282.658 538.452C285.239 541.953 287.065 545.846 288.045 550.208C289.025 554.569 289.123 558.888 288.297 563.161C287.638 566.563 286.466 569.577 284.745 572.159C283.219 574.463 281.302 576.434 278.911 578.065C276.608 579.661 274.094 580.814 271.326 581.521C268.726 582.243 265.956 582.527 263.096 582.422C260.362 582.329 257.622 581.855 254.875 581.001C253.071 580.448 251.115 579.711 249.095 578.757C247.557 578.06 245.705 577.122 243.538 575.943C239.723 573.887 236.566 572.021 234.066 570.345C230.777 568.086 227.96 565.746 225.702 563.29C223.596 561.018 221.613 558.335 219.791 555.287C218.257 552.774 216.766 549.8 215.234 546.358C213.982 543.534 213.143 541.256 212.724 539.441C212.173 537.233 211.837 534.539 211.708 531.443C211.522 526.27 212.055 521.969 213.35 518.544C214.141 516.422 215.247 514.543 216.626 512.9C218.143 511.144 219.867 509.873 221.798 509.086C224.042 508.118 226.949 507.72 230.565 507.856C234.6 508.031 238.507 508.659 242.367 509.789C246.269 510.924 249.914 512.54 253.306 514.598C255.143 515.703 257.794 517.563 261.215 520.215L269.676 526.687C272.76 528.884 275.077 530.712 276.635 532.087Z" fill="#FA762D"/>
<path d="M191.89 526.381C183.412 525.781 176.359 528.678 170.696 535.075C166.514 539.808 163.424 545.249 161.424 551.365C154.848 571.325 158.899 587.76 173.541 600.673C177.716 603.24 182.419 604.618 187.718 604.769C193.894 604.94 199.413 603.394 204.273 600.132C207.109 598.249 210.067 595.412 213.184 591.688C216.038 588.261 218.137 585.122 219.482 582.272C221.889 577.151 222.97 570.877 222.763 563.52C222.598 558.757 221.908 554.621 220.687 551.007C219.135 546.499 216.553 542.366 212.974 538.572C209.655 535.043 205.703 532.078 201.152 529.673C197.834 528.004 194.757 526.882 191.89 526.381Z" fill="white"/>
<path d="M330.349 325.748C330.076 323.195 329.575 319.458 328.847 314.536C328.847 314.49 328.437 312.713 327.663 309.112C323.206 309.021 318.749 309.068 314.383 309.296C300.739 309.982 290.416 312.353 283.367 316.365C273.18 322.201 265.677 329.494 260.903 338.246C258.356 342.896 256.22 352.285 254.403 366.46L281.831 389.611C295.929 387.512 304.206 385.916 306.662 384.822C313.666 381.721 319.259 376.661 323.488 369.596C328.535 361.117 331.035 350.771 331.033 338.601C331.078 334.59 330.85 330.306 330.349 325.748Z" fill="white"/>
<path d="M368.189 330.939C368.189 329.435 368.189 327.976 368.143 326.518C362.594 320.867 355.134 313.53 345.764 304.506C331.8 291.017 320.292 279.35 311.24 269.461C300.961 270.055 292.366 271.287 285.453 273.065C273.81 276.075 263.305 281.5 253.892 289.432C244.524 297.273 237.067 308.806 231.475 324.03C231.384 324.258 231.293 324.531 231.248 324.805C229.02 331.004 227.293 336.975 226.157 342.627L254.448 366.506C256.266 352.331 258.402 342.941 260.948 338.292C265.722 329.54 273.18 322.247 283.412 316.411C290.461 312.399 300.83 310.028 314.429 309.342C318.795 309.113 323.252 309.067 327.709 309.158C328.483 312.758 328.892 314.536 328.892 314.582C329.621 319.504 330.076 323.241 330.395 325.794C330.85 330.352 331.078 334.636 331.079 338.647C331.08 350.816 328.58 361.163 323.533 369.642C319.35 376.707 313.711 381.767 306.708 384.867C304.252 385.962 295.975 387.558 281.876 389.657L309.122 412.67C313.851 410.299 318.308 407.838 322.492 405.285C333.906 398.264 343.092 390.56 350.095 382.127C362.145 367.631 368.192 350.583 368.189 330.939Z" fill="#FF8846"/>
<path d="M361.088 283.811C359.495 278.57 358.221 274.286 357.22 270.913C348.488 269.593 339.028 268.91 328.886 268.912C322.564 268.912 316.697 269.096 311.285 269.415C320.291 279.35 331.799 291.017 345.764 304.506C355.134 313.53 362.548 320.867 368.097 326.518C367.869 315.351 366.821 305.78 364.955 297.758C364.182 294.385 362.908 289.736 361.088 283.811Z" fill="black"/>
<path d="M102.035 303.92C102.782 301.467 103.976 297.894 105.615 293.202C105.624 293.157 106.315 291.482 107.751 288.095C112.148 288.851 116.519 289.743 120.767 290.795C134.046 294.057 143.747 298.344 149.965 303.627C158.881 311.288 164.886 319.87 167.891 329.356C169.52 334.402 169.858 344.023 168.984 358.28L137.686 375.795C124.225 371.06 116.391 367.923 114.174 366.428C107.873 362.056 103.326 356.028 100.496 348.292C97.1275 339.013 96.5675 328.376 98.8527 316.433C99.7038 312.469 100.732 308.307 102.035 303.92Z" fill="white"/>
<path d="M63.9289 301.84C64.2113 300.364 64.494 298.888 64.804 297.51C71.3177 293.017 80.0248 287.232 90.9259 280.154C107.18 269.565 120.678 260.3 131.393 252.259C141.382 254.792 149.606 257.587 156.102 260.698C166.978 265.861 176.283 273.179 184.045 282.749C191.779 292.222 196.935 305 199.573 321.002C199.62 321.243 199.658 321.528 199.66 321.761C200.686 328.267 201.263 334.455 201.319 340.217L169.036 358.284C169.91 344.028 169.572 334.407 167.943 329.361C164.893 319.866 158.933 311.293 150.018 303.633C143.844 298.358 134.099 294.063 120.82 290.801C116.572 289.749 112.201 288.857 107.804 288.101C106.368 291.487 105.677 293.163 105.668 293.208C104.029 297.9 102.836 301.473 102.088 303.926C100.785 308.313 99.7129 312.466 98.9597 316.402C96.6745 328.345 97.1894 338.973 100.603 348.26C103.388 355.988 107.935 362.015 114.28 366.396C116.488 367.936 124.323 371.073 137.792 375.763L106.699 393.179C102.497 389.954 98.5792 386.693 94.9468 383.393C85.0473 374.337 77.4656 365.033 72.1218 355.419C62.9383 338.987 60.2401 321.118 63.9289 301.84Z" fill="#FF8846"/>
<path d="M79.8059 256.938C82.3544 252.096 84.4103 248.133 86.0269 245.013C94.8559 245.374 104.272 246.544 114.238 248.47C120.45 249.671 126.181 250.964 131.448 252.26C120.742 260.256 107.235 269.567 90.9811 280.156C80.0799 287.233 71.3728 293.018 64.8591 297.511C67.1795 286.595 70.0048 277.401 73.3967 269.846C74.7813 266.728 76.9056 262.407 79.8059 256.938Z" fill="black"/>
<path d="M35.1668 418.772C37.5263 423.299 41.5229 428.395 47.148 434.15C49.064 436.118 51.1159 438.099 53.2217 439.993C50.5898 442.212 47.2785 444.365 43.2427 446.449C42.7145 446.719 42.1367 447.03 41.6085 447.299C42.9186 449.392 44.4533 452.01 46.2621 455.112C49.6337 461.017 52.5734 465.691 55.0768 469.179C63.5129 480.968 75.0319 491.085 89.621 499.666C101.88 506.788 117.572 513.37 136.743 519.416C163.639 528.81 191.316 532.377 219.731 530.066C248.603 527.753 276.425 521.085 303.246 510.019C314.226 505.535 324.631 499.897 334.368 493.098L359.641 475.204C359.329 475.129 358.966 475.094 358.563 475.01C355.645 474.455 353.447 474.016 351.929 473.642C345.769 472.091 339.984 469.478 334.623 465.762C336.451 464.793 338.853 463.559 341.923 462.023C344.993 460.487 349.636 456.814 355.852 451.004C346.269 444.092 338.348 435.555 332.085 425.438C327.688 418.291 323.119 411.036 318.332 403.669C313.905 396.839 309.261 389.897 304.485 382.897C296.296 370.902 287.236 360.884 277.204 352.922C268.49 346.002 259.042 340.568 248.9 336.668C243.652 334.655 238.184 333.033 232.538 331.852C213.85 327.957 194.96 327.154 175.87 329.443C165.672 330.479 156.754 332.004 149.106 334.108C140.382 336.475 129.727 341.86 117.192 350.221C112.46 353.383 107.995 356.615 103.704 359.956C99.9982 362.895 97.2628 365.241 95.4976 366.994C89.9864 372.597 83.7125 379.499 76.6759 387.702C70.8268 394.462 66.4454 399.716 63.5728 403.512C59.1357 409.356 52.0388 413.846 42.2413 416.934C39.986 417.587 37.64 418.232 35.1668 418.772Z" fill="#FF8846"/>
<path d="M365.159 403.438C365.522 404.434 365.517 404.479 365.241 403.537C365.2 403.487 365.159 403.438 365.159 403.438Z" fill="#C95346"/>
<path d="M217.719 446.435C217.474 445.634 217.181 444.873 216.887 444.113C215.051 439.36 212.601 435.784 209.487 433.426C206.01 431.034 202.232 429.894 198.1 430.093C194.118 430.627 190.628 431.757 187.532 433.566C182.094 437.896 177.683 442.966 174.291 448.865C170.899 454.765 168.717 460.918 167.704 467.274C164.994 480.47 168.964 490.691 179.652 498.031C183.733 500.802 188.35 502.251 193.371 502.321C206.871 502.653 216.393 496.7 221.898 484.412C223.63 480.596 224.139 476.663 223.52 472.576C223.496 472.345 223.427 472.109 223.403 471.878C221.683 461.553 219.787 453.087 217.719 446.435Z" fill="white"/>
<path d="M174.596 424.199C174.918 424.184 175.193 424.165 175.515 424.15C178.518 423.797 180.887 422.424 182.716 419.992C184.016 418.333 184.748 416.391 184.958 414.17C184.984 413.898 184.964 413.622 184.99 413.35C184.947 410.419 183.861 407.891 181.773 405.816C179.635 403.782 177.127 402.765 174.199 402.804C171.271 402.844 168.746 403.929 166.675 406.017C164.955 407.773 163.984 409.829 163.72 412.136C163.433 415.173 164.23 417.856 166.111 420.185C167.993 422.515 170.381 423.841 173.324 424.123C173.727 424.208 174.139 424.201 174.596 424.199ZM236.024 414.854C233.932 412.824 231.378 411.802 228.45 411.842C225.522 411.881 223.043 412.97 220.972 415.058C218.942 417.196 217.923 419.751 217.966 422.682C218.008 425.613 219.094 428.141 221.187 430.17C223.321 432.25 225.874 433.272 228.802 433.232C231.73 433.192 234.255 432.108 236.281 430.015C238.356 427.882 239.37 425.372 239.327 422.441C239.248 419.415 238.158 416.933 236.024 414.854Z" fill="black"/>
<path d="M185.43 459.426C188.65 461.45 192.147 462.696 195.973 463.226C196.426 463.255 196.874 463.341 197.327 463.37C200.274 463.446 202.937 462.652 205.367 461.048" stroke="black" stroke-width="6" stroke-linecap="round" stroke-linejoin="round"/>
<path d="M204.102 428.856C202.281 427.278 200.065 426.483 197.527 426.524C194.988 426.564 192.834 427.374 191.008 429.023C189.23 430.64 188.366 432.597 188.385 434.848C188.404 437.098 189.34 439.035 191.161 440.612C192.982 442.189 195.197 442.985 197.736 442.944C200.274 442.903 202.429 442.094 204.255 440.445C206.033 438.828 206.897 436.871 206.878 434.62C206.859 432.37 205.923 430.433 204.102 428.856Z" fill="black"/>
</svg>
