<svg width="7680" height="2160" viewBox="0 0 7680 2160" fill="none" xmlns="http://www.w3.org/2000/svg">
<g clip-path="url(#clip0_1445_2553)">
<rect width="7680" height="2160" fill="#B1E8FF"/>
<g clip-path="url(#clip1_1445_2553)">
<g clip-path="url(#clip2_1445_2553)">
<path d="M-73.8135 1312.49C-73.8135 1312.49 -9.48133 1153.04 159.174 1297.64C159.174 1297.64 153.967 1191.28 250.507 1203.82C250.507 1203.82 222.862 1091.9 329.655 1037.78C436.449 983.659 505.435 1043.93 505.435 1043.93C505.435 1043.93 570.22 955.249 664.942 1028.47C759.665 1101.7 1031.45 2344.88 1031.45 2344.88L675.109 2600.86L-306.703 2214.44L-73.8135 1312.49Z" fill="url(#paint0_linear_1445_2553)"/>
<path d="M3843 1249.5C3843 1249.5 3789.34 1075.81 3657.63 1172.42C3657.63 1172.42 3653.97 1081.52 3572.46 1116.21C3572.46 1116.21 3582.85 1029.41 3493 999.549C3403.15 969.688 3363.93 1025.46 3363.93 1025.46C3363.93 1025.46 3320.03 972.176 3217.3 1021.95C3114.72 1071.71 2624.33 1864.5 2624.33 1864.5L2909.84 2011.76L3945.33 1883.67L3843 1249.5Z" fill="url(#paint1_linear_1445_2553)"/>
</g>
<path d="M108.781 585.93C117.111 572.355 130.068 564.179 145.031 559.396C163.233 553.688 162.924 549.986 159.222 531.782C150.275 488.279 194.083 460.819 234.96 474.703C249.152 479.485 254.859 484.576 265.811 494.604C274.141 502.163 276.609 515.584 286.789 507.562C291.725 503.86 294.193 496.301 299.13 491.518C309.773 481.337 316.097 479.794 322.73 477.789C335.688 473.932 346.331 473.623 359.288 477.017C377.49 481.8 397.235 491.673 405.102 509.722C409.112 518.824 405.873 529.623 416.671 531.937C428.394 534.405 439.654 534.096 451.069 538.879C463.563 543.969 472.51 551.529 477.6 564.179C483.616 579.297 485.467 597.192 478.063 612.156C468.962 630.514 451.377 633.753 433.484 639.307C415.899 644.861 402.942 642.392 386.591 633.599C379.804 629.897 371.783 622.337 364.07 627.583C359.134 630.976 357.592 638.69 353.272 643.009C344.789 651.494 339.39 658.282 320.108 663.836C301.598 669.081 280.928 670.006 263.497 660.596C253.162 654.888 247.609 648.409 242.21 639.461C234.498 626.503 236.966 628.508 227.556 636.376C219.535 643.164 204.727 649.797 188.067 652.883C166.78 656.893 150.892 656.431 131.148 647.483C109.707 638.227 96.2867 606.294 108.781 585.93Z" fill="white" fill-opacity="0.5"/>
<path d="M3100.81 654.854C3109.14 641.279 3122.09 633.102 3137.06 628.32C3155.26 622.612 3154.95 618.91 3151.25 600.706C3142.3 557.203 3186.11 529.743 3226.99 543.627C3241.18 548.409 3246.88 553.5 3257.84 563.528C3266.17 571.087 3268.63 584.508 3278.81 576.486C3283.75 572.784 3286.22 565.225 3291.15 560.442C3301.8 550.261 3308.12 548.718 3314.76 546.712C3327.71 542.856 3338.36 542.547 3351.31 545.941C3369.52 550.723 3389.26 560.596 3397.13 578.646C3401.14 587.748 3397.9 598.546 3408.7 600.86C3420.42 603.329 3431.68 603.02 3443.09 607.802C3455.59 612.893 3464.54 620.452 3469.63 633.102C3475.64 648.221 3477.49 666.116 3470.09 681.08C3460.99 699.438 3443.4 702.677 3425.51 708.231C3407.92 713.784 3394.97 711.316 3378.62 702.523C3371.83 698.82 3363.81 691.261 3356.1 696.506C3351.16 699.9 3349.62 707.614 3345.3 711.933C3336.81 720.418 3331.42 727.206 3312.13 732.759C3293.62 738.004 3272.95 738.93 3255.52 729.52C3245.19 723.812 3239.63 717.333 3234.24 708.385C3226.52 695.427 3228.99 697.432 3219.58 705.3C3211.56 712.087 3196.75 718.721 3180.09 721.806C3158.81 725.817 3142.92 725.355 3123.17 716.407C3101.73 707.151 3088.31 675.217 3100.81 654.854Z" fill="white" fill-opacity="0.5"/>
<path d="M669.267 221.758C674.959 212.455 683.814 206.852 694.039 203.575C706.478 199.663 706.267 197.126 703.737 184.651C697.623 154.839 727.561 136.022 755.495 145.536C765.193 148.814 769.093 152.302 776.578 159.174C782.27 164.354 783.957 173.551 790.914 168.054C794.287 165.517 795.974 160.337 799.347 157.059C806.62 150.082 810.942 149.025 815.475 147.651C824.33 145.008 831.603 144.796 840.458 147.122C852.897 150.399 866.39 157.165 871.766 169.534C874.506 175.771 872.293 183.171 879.672 184.757C887.683 186.449 895.378 186.237 903.179 189.514C911.717 193.003 917.831 198.183 921.31 206.852C925.421 217.212 926.686 229.475 921.626 239.73C915.407 252.31 903.39 254.53 891.162 258.336C879.145 262.142 870.29 260.45 859.116 254.424C854.478 251.887 848.997 246.707 843.726 250.301C840.353 252.627 839.298 257.913 836.347 260.873C830.549 266.687 826.86 271.339 813.683 275.145C801.034 278.739 786.908 279.373 774.996 272.925C767.934 269.013 764.139 264.573 760.449 258.442C755.179 249.561 756.865 250.936 750.435 256.327C744.954 260.979 734.834 265.525 723.449 267.639C708.902 270.388 698.045 270.07 684.552 263.939C669.9 257.596 660.729 235.712 669.267 221.758Z" fill="white" fill-opacity="0.5"/>
<g clip-path="url(#clip3_1445_2553)">
<path d="M1921.15 509.585V2061.92C1921.15 2061.92 1353.08 1916.81 661 1923.08V414.362C661 414.44 1549.11 151.907 1921.15 509.585Z" fill="#FFFFFC"/>
<path d="M1919.85 508.017V2010.35C1919.85 2010.35 2487.92 1895.24 3180 1901.51V412.793C3180 412.872 2291.89 150.339 1919.85 508.017Z" fill="#F5F5F2"/>
</g>
<rect y="1780" width="3840" height="380" fill="url(#paint2_linear_1445_2553)"/>
<path d="M1606.8 1991.3C1606.8 1991.3 1602.7 1973.5 1587.2 1968.6C1571.7 1963.6 1602.9 1959.9 1618.6 1974C1618.6 1974 1623 1952.6 1628.3 1946.7C1633.6 1940.8 1642.8 1974.3 1642.8 1974.3C1642.8 1974.3 1652.3 1962.5 1667.4 1961.3C1682.6 1960.1 1657.5 1968.4 1651.3 1991.7L1606.8 1991.3Z" fill="#9ED567"/>
<path d="M2739.8 1971.3C2739.8 1971.3 2735.7 1953.5 2720.2 1948.6C2704.7 1943.6 2735.9 1939.9 2751.6 1954C2751.6 1954 2756 1932.6 2761.3 1926.7C2766.6 1920.8 2775.8 1954.3 2775.8 1954.3C2775.8 1954.3 2785.3 1942.5 2800.4 1941.3C2815.6 1940.1 2790.5 1948.4 2784.3 1971.7L2739.8 1971.3Z" fill="#9ED567"/>
<path d="M217.804 2017.3C217.804 2017.3 213.704 1999.5 198.204 1994.6C182.704 1989.7 213.904 1985.9 229.604 2000C229.604 2000 234.004 1978.6 239.304 1972.7C244.604 1966.8 253.804 2000.3 253.804 2000.3C253.804 2000.3 263.304 1988.5 278.404 1987.3C293.604 1986.1 268.504 1994.4 262.304 2017.7L217.804 2017.3Z" fill="#9ED567"/>
<path d="M2290.8 2047.3C2290.8 2047.3 2286.7 2029.5 2271.2 2024.6C2255.7 2019.6 2286.9 2015.9 2302.6 2030C2302.6 2030 2307 2008.6 2312.3 2002.7C2317.6 1996.8 2326.8 2030.3 2326.8 2030.3C2326.8 2030.3 2336.3 2018.5 2351.4 2017.3C2366.6 2016.1 2341.5 2024.4 2335.3 2047.7L2290.8 2047.3Z" fill="#9ED567"/>
<path d="M1058.8 2061.3C1058.8 2061.3 1054.7 2043.5 1039.2 2038.6C1023.7 2033.6 1054.9 2029.9 1070.6 2044C1070.6 2044 1075 2022.6 1080.3 2016.7C1085.6 2010.8 1094.8 2044.3 1094.8 2044.3C1094.8 2044.3 1104.3 2032.5 1119.4 2031.3C1134.6 2030.1 1109.5 2038.4 1103.3 2061.7L1058.8 2061.3Z" fill="#9ED567"/>
<path d="M3518.8 2009.3C3518.8 2009.3 3514.7 1991.5 3499.2 1986.6C3483.7 1981.6 3514.9 1977.9 3530.6 1992C3530.6 1992 3535 1970.6 3540.3 1964.7C3545.6 1958.8 3554.8 1992.3 3554.8 1992.3C3554.8 1992.3 3564.3 1980.5 3579.4 1979.3C3594.6 1978.1 3569.5 1986.4 3563.3 2009.7L3518.8 2009.3Z" fill="#9ED567"/>
<path d="M1871.8 1938.3C1871.8 1938.3 1867.7 1920.5 1852.2 1915.6C1836.7 1910.7 1867.9 1906.9 1883.6 1921C1883.6 1921 1888 1899.6 1893.3 1893.7C1898.6 1887.8 1907.8 1921.3 1907.8 1921.3C1907.8 1921.3 1917.3 1909.5 1932.4 1908.3C1947.6 1907.1 1922.5 1915.4 1916.3 1938.7L1871.8 1938.3Z" fill="#9ED567"/>
</g>
<g clip-path="url(#clip4_1445_2553)">
<path d="M3766.19 1312.49C3766.19 1312.49 3830.52 1153.04 3999.18 1297.64C3999.18 1297.64 3993.97 1191.28 4090.51 1203.82C4090.51 1203.82 4062.86 1091.9 4169.66 1037.78C4276.45 983.659 4345.44 1043.93 4345.44 1043.93C4345.44 1043.93 4410.22 955.249 4504.94 1028.47C4599.67 1101.7 4871.46 2344.88 4871.46 2344.88L4515.11 2600.86L3533.3 2214.44L3766.19 1312.49Z" fill="url(#paint3_linear_1445_2553)"/>
<path d="M7683 1249.5C7683 1249.5 7629.34 1075.81 7497.63 1172.42C7497.63 1172.42 7493.97 1081.52 7412.46 1116.21C7412.46 1116.21 7422.85 1029.41 7333 999.549C7243.15 969.688 7203.93 1025.46 7203.93 1025.46C7203.93 1025.46 7160.03 972.176 7057.3 1021.95C6954.72 1071.71 6464.33 1864.5 6464.33 1864.5L6749.84 2011.76L7785.33 1883.67L7683 1249.5Z" fill="url(#paint4_linear_1445_2553)"/>
</g>
<path d="M3948.78 585.93C3957.11 572.355 3970.07 564.179 3985.03 559.396C4003.23 553.688 4002.92 549.986 3999.22 531.782C3990.28 488.279 4034.08 460.819 4074.96 474.703C4089.15 479.485 4094.86 484.576 4105.81 494.604C4114.14 502.163 4116.61 515.584 4126.79 507.562C4131.73 503.86 4134.19 496.301 4139.13 491.518C4149.77 481.337 4156.1 479.794 4162.73 477.789C4175.69 473.932 4186.33 473.623 4199.29 477.017C4217.49 481.8 4237.23 491.673 4245.1 509.722C4249.11 518.824 4245.87 529.623 4256.67 531.937C4268.39 534.405 4279.65 534.096 4291.07 538.879C4303.56 543.969 4312.51 551.529 4317.6 564.179C4323.62 579.297 4325.47 597.192 4318.06 612.156C4308.96 630.514 4291.38 633.753 4273.48 639.307C4255.9 644.861 4242.94 642.392 4226.59 633.599C4219.8 629.897 4211.78 622.337 4204.07 627.583C4199.13 630.976 4197.59 638.69 4193.27 643.009C4184.79 651.494 4179.39 658.282 4160.11 663.836C4141.6 669.081 4120.93 670.006 4103.5 660.596C4093.16 654.888 4087.61 648.409 4082.21 639.461C4074.5 626.503 4076.97 628.508 4067.56 636.376C4059.53 643.164 4044.73 649.797 4028.07 652.883C4006.78 656.893 3990.89 656.431 3971.15 647.483C3949.71 638.227 3936.29 606.294 3948.78 585.93Z" fill="white" fill-opacity="0.5"/>
<path d="M6940.81 654.854C6949.14 641.279 6962.09 633.102 6977.06 628.32C6995.26 622.612 6994.95 618.91 6991.25 600.706C6982.3 557.203 7026.11 529.743 7066.99 543.627C7081.18 548.409 7086.88 553.5 7097.84 563.528C7106.17 571.087 7108.63 584.508 7118.81 576.486C7123.75 572.784 7126.22 565.225 7131.15 560.442C7141.8 550.261 7148.12 548.718 7154.76 546.712C7167.71 542.856 7178.36 542.547 7191.31 545.941C7209.52 550.723 7229.26 560.596 7237.13 578.646C7241.14 587.748 7237.9 598.546 7248.7 600.86C7260.42 603.329 7271.68 603.02 7283.09 607.802C7295.59 612.893 7304.54 620.452 7309.63 633.102C7315.64 648.221 7317.49 666.116 7310.09 681.08C7300.99 699.438 7283.4 702.677 7265.51 708.231C7247.92 713.784 7234.97 711.316 7218.62 702.523C7211.83 698.82 7203.81 691.261 7196.1 696.506C7191.16 699.9 7189.62 707.614 7185.3 711.933C7176.81 720.418 7171.41 727.206 7152.13 732.759C7133.62 738.004 7112.95 738.93 7095.52 729.52C7085.19 723.812 7079.63 717.333 7074.24 708.385C7066.52 695.427 7068.99 697.432 7059.58 705.3C7051.56 712.087 7036.75 718.721 7020.09 721.806C6998.81 725.817 6982.92 725.355 6963.17 716.407C6941.73 707.151 6928.31 675.217 6940.81 654.854Z" fill="white" fill-opacity="0.5"/>
<path d="M4509.27 221.758C4514.96 212.455 4523.81 206.852 4534.04 203.575C4546.48 199.663 4546.27 197.126 4543.74 184.651C4537.62 154.839 4567.56 136.022 4595.5 145.536C4605.19 148.814 4609.09 152.302 4616.58 159.174C4622.27 164.354 4623.96 173.551 4630.91 168.054C4634.29 165.517 4635.97 160.337 4639.35 157.059C4646.62 150.082 4650.94 149.025 4655.48 147.651C4664.33 145.008 4671.6 144.796 4680.46 147.122C4692.9 150.399 4706.39 157.165 4711.77 169.534C4714.51 175.771 4712.29 183.171 4719.67 184.757C4727.68 186.449 4735.38 186.237 4743.18 189.514C4751.72 193.003 4757.83 198.183 4761.31 206.852C4765.42 217.212 4766.69 229.475 4761.63 239.73C4755.41 252.31 4743.39 254.53 4731.16 258.336C4719.14 262.142 4710.29 260.45 4699.12 254.424C4694.48 251.887 4689 246.707 4683.73 250.301C4680.35 252.627 4679.3 257.913 4676.35 260.873C4670.55 266.687 4666.86 271.339 4653.68 275.145C4641.03 278.739 4626.91 279.373 4615 272.925C4607.93 269.013 4604.14 264.573 4600.45 258.442C4595.18 249.561 4596.87 250.936 4590.44 256.327C4584.95 260.979 4574.83 265.525 4563.45 267.639C4548.9 270.388 4538.04 270.07 4524.55 263.939C4509.9 257.596 4500.73 235.712 4509.27 221.758Z" fill="white" fill-opacity="0.5"/>
<g clip-path="url(#clip5_1445_2553)">
<path d="M5761.15 509.585V2061.92C5761.15 2061.92 5193.08 1916.81 4501 1923.08V414.362C4501 414.44 5389.11 151.907 5761.15 509.585Z" fill="#FFFFFC"/>
<path d="M5759.85 508.017V2010.35C5759.85 2010.35 6327.92 1895.24 7020 1901.51V412.793C7020 412.872 6131.89 150.339 5759.85 508.017Z" fill="#F5F5F2"/>
</g>
<rect x="3840" y="1780" width="3840" height="380" fill="url(#paint5_linear_1445_2553)"/>
<path d="M5446.8 1991.3C5446.8 1991.3 5442.7 1973.5 5427.2 1968.6C5411.7 1963.6 5442.9 1959.9 5458.6 1974C5458.6 1974 5463 1952.6 5468.3 1946.7C5473.6 1940.8 5482.8 1974.3 5482.8 1974.3C5482.8 1974.3 5492.3 1962.5 5507.4 1961.3C5522.6 1960.1 5497.5 1968.4 5491.3 1991.7L5446.8 1991.3Z" fill="#9ED567"/>
<path d="M6579.8 1971.3C6579.8 1971.3 6575.7 1953.5 6560.2 1948.6C6544.7 1943.6 6575.9 1939.9 6591.6 1954C6591.6 1954 6596 1932.6 6601.3 1926.7C6606.6 1920.8 6615.8 1954.3 6615.8 1954.3C6615.8 1954.3 6625.3 1942.5 6640.4 1941.3C6655.6 1940.1 6630.5 1948.4 6624.3 1971.7L6579.8 1971.3Z" fill="#9ED567"/>
<path d="M4057.8 2017.3C4057.8 2017.3 4053.7 1999.5 4038.2 1994.6C4022.7 1989.7 4053.9 1985.9 4069.6 2000C4069.6 2000 4074 1978.6 4079.3 1972.7C4084.6 1966.8 4093.8 2000.3 4093.8 2000.3C4093.8 2000.3 4103.3 1988.5 4118.4 1987.3C4133.6 1986.1 4108.5 1994.4 4102.3 2017.7L4057.8 2017.3Z" fill="#9ED567"/>
<path d="M6130.8 2047.3C6130.8 2047.3 6126.7 2029.5 6111.2 2024.6C6095.7 2019.6 6126.9 2015.9 6142.6 2030C6142.6 2030 6147 2008.6 6152.3 2002.7C6157.6 1996.8 6166.8 2030.3 6166.8 2030.3C6166.8 2030.3 6176.3 2018.5 6191.4 2017.3C6206.6 2016.1 6181.5 2024.4 6175.3 2047.7L6130.8 2047.3Z" fill="#9ED567"/>
<path d="M4898.8 2061.3C4898.8 2061.3 4894.7 2043.5 4879.2 2038.6C4863.7 2033.6 4894.9 2029.9 4910.6 2044C4910.6 2044 4915 2022.6 4920.3 2016.7C4925.6 2010.8 4934.8 2044.3 4934.8 2044.3C4934.8 2044.3 4944.3 2032.5 4959.4 2031.3C4974.6 2030.1 4949.5 2038.4 4943.3 2061.7L4898.8 2061.3Z" fill="#9ED567"/>
<path d="M7358.8 2009.3C7358.8 2009.3 7354.7 1991.5 7339.2 1986.6C7323.7 1981.6 7354.9 1977.9 7370.6 1992C7370.6 1992 7375 1970.6 7380.3 1964.7C7385.6 1958.8 7394.8 1992.3 7394.8 1992.3C7394.8 1992.3 7404.3 1980.5 7419.4 1979.3C7434.6 1978.1 7409.5 1986.4 7403.3 2009.7L7358.8 2009.3Z" fill="#9ED567"/>
<path d="M5711.8 1938.3C5711.8 1938.3 5707.7 1920.5 5692.2 1915.6C5676.7 1910.7 5707.9 1906.9 5723.6 1921C5723.6 1921 5728 1899.6 5733.3 1893.7C5738.6 1887.8 5747.8 1921.3 5747.8 1921.3C5747.8 1921.3 5757.3 1909.5 5772.4 1908.3C5787.6 1907.1 5762.5 1915.4 5756.3 1938.7L5711.8 1938.3Z" fill="#9ED567"/>
</g>
<defs>
<linearGradient id="paint0_linear_1445_2553" x1="45.9995" y1="1566.5" x2="1615.03" y2="1997.64" gradientUnits="userSpaceOnUse">
<stop stop-color="#5EB369"/>
<stop offset="1" stop-color="#24652C"/>
</linearGradient>
<linearGradient id="paint1_linear_1445_2553" x1="3827.5" y1="1515" x2="2199.5" y2="1515" gradientUnits="userSpaceOnUse">
<stop stop-color="#5EB369"/>
<stop offset="1" stop-color="#24652C"/>
</linearGradient>
<linearGradient id="paint2_linear_1445_2553" x1="1920" y1="1780" x2="1920" y2="2160" gradientUnits="userSpaceOnUse">
<stop stop-color="#93D078"/>
<stop offset="1" stop-color="#64A65E"/>
</linearGradient>
<linearGradient id="paint3_linear_1445_2553" x1="3886" y1="1566.5" x2="5455.03" y2="1997.64" gradientUnits="userSpaceOnUse">
<stop stop-color="#5EB369"/>
<stop offset="1" stop-color="#24652C"/>
</linearGradient>
<linearGradient id="paint4_linear_1445_2553" x1="7667.5" y1="1515" x2="6039.5" y2="1515" gradientUnits="userSpaceOnUse">
<stop stop-color="#5EB369"/>
<stop offset="1" stop-color="#24652C"/>
</linearGradient>
<linearGradient id="paint5_linear_1445_2553" x1="5760" y1="1780" x2="5760" y2="2160" gradientUnits="userSpaceOnUse">
<stop stop-color="#93D078"/>
<stop offset="1" stop-color="#64A65E"/>
</linearGradient>
<clipPath id="clip0_1445_2553">
<rect width="7680" height="2160" fill="white"/>
</clipPath>
<clipPath id="clip1_1445_2553">
<rect width="3840" height="2160" fill="white"/>
</clipPath>
<clipPath id="clip2_1445_2553">
<rect width="3840" height="1342" fill="white" transform="translate(0 818)"/>
</clipPath>
<clipPath id="clip3_1445_2553">
<rect width="2797" height="1460" fill="white" transform="translate(522 320)"/>
</clipPath>
<clipPath id="clip4_1445_2553">
<rect width="3840" height="1342" fill="white" transform="translate(3840 818)"/>
</clipPath>
<clipPath id="clip5_1445_2553">
<rect width="2797" height="1460" fill="white" transform="translate(4362 320)"/>
</clipPath>
</defs>
</svg>
